<?xml version="1.0" encoding="UTF-8"?>
<svg id="Layer_2" data-name="Layer 2" xmlns="http://www.w3.org/2000/svg" viewBox="0 0 1975.6 467.3">
  <defs>
    <style>
      .cls-1 {
        fill: #fff;
      }
    </style>
  </defs>
  <g id="Layer_1-2" data-name="Layer 1">
    <g>
      <path class="cls-1" d="M0,467.3h467.3V0H0v467.3h0ZM49.8,49.8h367.8v367.8H49.8V49.8Z"/>
      <path class="cls-1" d="M745.6,90.7c-7.1-6.7-15.4-12-24.7-15.6-9.3-3.8-19.3-5.6-30.1-5.8-8.9,0-18.2,1.5-27.6,4.5-9.4,3-18.2,7.8-26.6,14.5-8.3,6.7-15.1,15.5-20.4,26.5-5.2,10.9-7.8,23.8-7.8,38.8s3.4,27.7,10.2,39.9c6.7,12.3,16.2,22.2,28.4,29.6,12.2,7.5,25.6,11.5,40.5,12.2,13.1,0,26.8-3.4,41.3-10.3v-30.3c-14.8,8.6-27.6,12.9-38.5,12.9s-19.7-2.4-27.5-7.1c-7.7-4.8-13.7-11-17.9-18.6s-6.5-15.4-6.9-23.3c0-1.9-.2-3.7-.7-5,.1-13.2,2.8-24.1,7.9-32.5,5.2-8.5,11.7-14.7,19.8-18.5s17-5.7,26.7-5.7,16.3,2.3,23.8,6.9c7.5,4.7,13.4,11.3,17.8,20,4.5,8.8,6.9,18.9,7.1,30.4v77.9c0,9.4-2.3,17.7-6.9,25-4.6,7.2-11,12.8-19.2,16.8-8.2,3.9-17.4,5.9-27.5,5.9s-14.6-.6-21.2-1.8c-6.6-1.2-14.9-3.3-25-6.2l-7.3,26.5c17.8,6.1,35.9,9.2,54.4,9.2,17.5-.2,31.9-3.6,43.1-10.3,11.3-6.7,19.7-14.8,25.2-24.2,5.6-9.4,9.3-18.3,11-26.7,1.9-8.4,2.8-15.4,2.8-20.8v-81.7c-.7-10.5-3.1-20.3-7.2-29.2-4.1-9.1-9.8-16.9-16.9-23.7l-.1-.2Z"/>
      <path class="cls-1" d="M909.7,168.7c-.8,10.1-4.8,19.1-12.1,27s-16.5,11.9-27.4,11.9c-6.4-.3-12.4-2-18.1-5.2-5.7-3.2-10.4-7.7-14-13.5-3.7-5.8-5.7-12.5-6.1-20.2v-96h-29.4v90.6c0,24,6.6,41.7,19.7,53.4,13.1,11.7,29,17.8,47.9,18.7,13.3,0,25.1-3,35.7-9,10.5-5.9,18.6-14.1,24.4-24.6,5.9-10.4,8.7-21.9,8.7-34.5v-94.6h-29.3v96h0Z"/>
      <path class="cls-1" d="M1111,91.3c-6.8-6.8-15.2-12.2-25.4-16-10.1-4-21.5-5.9-34.3-5.9s-32.9,3.7-45.6,11c-12.6,7.3-22.2,17.2-28.7,29.6-6.4,12.4-9.5,26.1-9.5,41.2s3.7,31.4,11.4,44.2c7.5,12.9,17.4,22.7,29.5,29.6,12.2,6.9,24.7,10.4,37.9,10.4,7.4-.3,13.6-1,18.4-2.3s8.5-2.6,11.3-4.2,7.5-4.3,13.8-8.3v-35.1c-11.9,14.9-25.5,22.3-40.8,22.3s-17.4-2.3-25.4-6.7c-8-4.5-14.4-11-19.3-19.6s-7.3-18.7-7.3-30.3c.2-12.9,3.1-23.5,8.8-31.6,5.6-8.1,12.4-13.9,20.4-17.3,7.9-3.4,15.6-5.1,22.9-5.1,10.5,0,19.6,1.9,27.3,5.6,7.7,3.7,13.8,8.8,18.1,15.3,4.2,6.5,6.6,13.8,7,21.9v92.1h30.2v-89.6c0-9.7-1.7-19-5.2-27.7-3.6-8.8-8.5-16.6-15.3-23.3l-.2-.2Z"/>
      <path class="cls-1" d="M1348.4,76.5c-8.6-4.8-17.8-7.1-27.4-7.1s-20.7,2.1-29,6.5c-8.4,4.2-14.8,9.5-19.1,15.9-11.4-14.5-26.1-21.9-44-22.4-11.9,0-22.3,2.4-31.4,7.4s-16,11.5-20.8,19.6-7.4,16.9-7.6,26.1v109.6h29.3v-96.8c0-11.4,2-20.5,6.1-27.4,4-7,12-10.6,23.7-10.8,9.6,0,17,3.2,22,9.7,4.9,6.5,7.5,15.3,7.5,26.5v98.8h30.1v-100.7c0-9.3,2.4-17.4,7.1-24.2,4.7-6.7,12.7-10.1,24-10.1,10.1.3,17.4,3.9,21.8,10.8,4.4,6.9,6.5,14.7,6.5,23.4v100.7h29.3v-109.6c0-9.5-2.5-18.3-7.6-26.5s-12.1-14.7-20.6-19.4h.1Z"/>
      <path class="cls-1" d="M1528.6,185.3c-11.8,14.9-25.5,22.3-40.8,22.3s-17.4-2.3-25.4-6.7c-8-4.5-14.4-11-19.3-19.6s-7.4-18.7-7.4-30.3c.3-12.9,3.2-23.5,8.8-31.6,5.7-8.1,12.5-13.9,20.4-17.3,7.9-3.4,15.6-5.1,22.9-5.1,10.5,0,19.6,1.9,27.4,5.6,7.7,3.7,13.7,8.8,18,15.3s6.6,13.8,7.1,21.9v92.1h30.1v-89.6c0-9.7-1.7-19-5.1-27.7-3.4-8.8-8.6-16.6-15.3-23.3-6.8-6.8-15.2-12.2-25.4-16-10.2-4-21.5-5.9-34.3-5.9s-33,3.7-45.6,11-22.2,17.2-28.7,29.6c-6.4,12.4-9.6,26.1-9.6,41.2s3.8,31.4,11.4,44.2c7.6,12.9,17.4,22.7,29.5,29.6s24.7,10.4,37.9,10.4c7.5-.3,13.5-1,18.3-2.3,4.7-1.3,8.6-2.6,11.4-4.2,2.9-1.6,7.4-4.3,13.7-8.3v-35.3Z"/>
      <path class="cls-1" d="M1637.2,32.1h-29.1v150.1c0,9,1.6,17.3,4.8,24.8,3.3,7.5,8.7,13.5,16.1,18,7.3,4.6,16.7,6.9,28.1,6.9h36.9v-27.7h-36.1c-6.8,0-11.9-1.5-15.4-4.8-3.6-3.2-5.4-7.1-5.4-11.5v-87.6h56.9v-27.7h-56.9v-40.6l.1.1Z"/>
      <path class="cls-1" d="M1829.4,168.7c-.7,10.1-4.8,19.1-12.1,27-7.3,7.9-16.4,11.9-27.4,11.9-6.4-.3-12.5-2-18.2-5.2s-10.2-7.7-14-13.5c-3.7-5.8-5.7-12.5-6-20.2v-96h-29.4v90.6c0,24,6.5,41.7,19.6,53.4,13.1,11.7,29.1,17.8,48,18.7,13.2,0,25.1-3,35.5-9,10.6-5.9,18.7-14.1,24.5-24.6,5.8-10.4,8.8-21.9,8.8-34.5v-94.6h-29.3v96h0Z"/>
      <path class="cls-1" d="M1966.5,69.3c-9.7,0-18.1,2-25.1,6.2-7.1,4.1-12.6,9.2-16.4,15.6v-18.4h-27.9v159.3h29.4v-83.8c.4-12.4,3.8-24,10.2-34.9,6.4-10.9,17-16.3,32-16.3h6.9v-27.7h-9.1Z"/>
      <path class="cls-1" d="M1011.1,383.2c-7.2,23.1-10.8,36.1-10.8,39.3h-1.4c0-3.2-3.6-16.8-10.8-40.7-7.2-23.9-10.8-37.8-10.8-41.8h-25.6c0,3.9,5.7,21.4,17,52.3,11.3,31,17,48.5,17,52.6h22.2c0-4.3,6.1-21.8,18.4-52.4,12.3-30.6,18.4-48.2,18.4-52.6h-22.7c0,5.8-3.6,20.2-10.8,43.2l-.1.1Z"/>
      <path class="cls-1" d="M1090.2,340c.7,13.8,1,30.4,1,50.1s-.4,38.2-1,54.9h22.8c-.7-16.3-1-34.6-1-54.9s.4-36.5,1-50.1h-22.8Z"/>
      <path class="cls-1" d="M1226.7,340h-30.5c0,3.3-6.3,21.1-18.8,53.4s-18.8,49.5-18.8,51.6h24.3c0-3.8,2.5-13.9,7.6-30.2h37.2c4.9,16.6,7.3,26.6,7.3,30.2h25.8c0-2.9-5.7-20.4-17.1-52.4s-17.1-49.5-17.1-52.6h.1ZM1194.2,399.4c9.5-27.9,14.3-42.9,14.3-45h1.3c0,2.3,4.6,17.3,13.8,45h-29.4Z"/>
      <path class="cls-1" d="M1330,401c0,12.3-2.3,20.6-6.9,25-3.2,3.1-8.3,4.6-15.3,4.6s-7.2-.8-10.8-2.4l-1.5,17.3c4.7,1.1,9.4,1.7,14.1,1.7,13.2,0,22.9-3.2,29.1-9.7,7.4-7.5,11-20.2,11-38.1s.3-43.3,1-59.3h-22c.8,16.1,1.2,36.4,1.2,61l.1-.1Z"/>
      <path class="cls-1" d="M1426.8,398c11.4,0,23.5.3,36,.8v-16.8c-12.8.6-24.8.9-36,.9,0-10.2-.3-19-.8-26.4,13.1,0,27.7.4,43.9,1.3l.9-17.7h-65.5c.7,13.8,1,30.5,1,50.1s-.4,38.7-1,54.9h68.6l.6-17.7c-16.7.9-32.4,1.4-47.1,1.4-.4-9.5-.6-19.7-.6-30.6v-.2Z"/>
      <path class="cls-1" d="M1564.1,382c-8.7-3.5-14.3-6.2-16.9-8.1-3-2.3-4.4-5.2-4.4-8.8,0-6.8,6.3-10.2,19-10.2s16.3,1.3,23.5,3.9l3-17.9c-7.1-1.8-16-2.7-26.5-2.7s-22.7,2.6-29.5,7.8c-6.9,5.2-10.3,12.4-10.3,21.7s2.6,14.6,7.8,20.1c4.1,4.3,10.5,8.3,18.9,11.9,9.4,4,15.6,7.2,18.6,9.7,3.5,2.8,5.3,6.2,5.3,10.3s-1.9,6.7-5.6,8.4c-3.8,1.7-9.9,2.5-18.5,2.5s-16-1.5-24.7-4.5l-4,18c8.8,2.5,18.4,3.7,28.6,3.7,30.2,0,45.3-10.5,45.3-31.5s-3-16.1-9.1-22.1c-4.6-4.5-11.4-8.5-20.6-12.3l.1.1Z"/>
    </g>
  </g>
</svg>
